<?xml version="1.0" encoding="UTF-8"?>
<svg id="Capa_2" data-name="Capa 2" xmlns="http://www.w3.org/2000/svg" viewBox="0 0 573.49 130.52">
  <defs>
    <style>
      .cls-1 {
        fill: #010101;
        stroke-width: 0px;
      }
    </style>
  </defs>
  <g id="Capa_1-2" data-name="Capa 1">
    <g>
      <g>
        <polygon class="cls-1" points="0 65.26 0 130.52 28.67 115.07 28.67 65.26 28.67 15.66 0 0 0 65.26"/>
        <polygon class="cls-1" points="34.28 65.26 34.28 65.26 34.28 65.26 34.28 130.52 56.8 109.75 56.8 65.26 56.8 65.26 56.8 65.26 56.8 20.77 34.28 0 34.28 65.26"/>
        <polygon class="cls-1" points="62.42 0 62.42 65.26 62.42 65.26 62.42 65.26 62.42 130.52 78.79 107.35 78.79 65.26 78.79 65.26 78.79 65.26 78.79 23.17 62.42 0"/>
      </g>
      <g>
        <path class="cls-1" d="M136.92,30.73c4.49,0,8.45.86,11.88,2.57,3.43,1.72,6.08,4.15,7.95,7.3,1.87,3.15,2.81,6.81,2.81,10.99s-.94,7.84-2.81,10.99c-1.87,3.15-4.52,5.58-7.95,7.3-3.43,1.72-7.39,2.57-11.88,2.57h-15.06v23.76h-10.76V30.73h25.82ZM121.86,63.09h14.12c3.87,0,6.94-1.04,9.21-3.13,2.28-2.09,3.41-4.88,3.41-8.37s-1.12-6.36-3.37-8.42c-2.24-2.06-5.3-3.09-9.17-3.09h-14.22v23.01Z"/>
        <path class="cls-1" d="M164.24,59.4c1.96-3.71,4.71-6.58,8.23-8.61,3.52-2.03,7.56-3.04,12.11-3.04s8.68.94,12.21,2.81c3.52,1.87,6.3,4.52,8.33,7.95,2.03,3.43,3.07,7.45,3.13,12.07,0,1.25-.09,2.53-.28,3.84h-36.11v.56c.25,4.18,1.56,7.48,3.93,9.91,2.37,2.43,5.52,3.65,9.45,3.65,3.12,0,5.74-.73,7.86-2.2,2.12-1.46,3.52-3.54,4.21-6.22h10.1c-.87,4.86-3.23,8.86-7.06,11.97-3.84,3.12-8.62,4.68-14.36,4.68-4.99,0-9.34-1.01-13.05-3.04-3.71-2.03-6.58-4.88-8.61-8.56-2.03-3.68-3.04-7.95-3.04-12.81s.98-9.24,2.95-12.96ZM197.96,67.02c-.44-3.49-1.82-6.22-4.16-8.18-2.34-1.96-5.29-2.95-8.84-2.95-3.31,0-6.16,1.01-8.56,3.04-2.4,2.03-3.79,4.72-4.16,8.09h25.72Z"/>
        <path class="cls-1" d="M240.99,48.32v9.45h-4.49c-4.18,0-7.2,1.36-9.07,4.07-1.87,2.71-2.81,6.16-2.81,10.34v24.04h-10.1v-47.89h8.98l1.12,7.2c1.37-2.24,3.15-4.01,5.33-5.29,2.18-1.28,5.11-1.92,8.79-1.92h2.24Z"/>
        <path class="cls-1" d="M288.24,48.32v47.89h-8.89l-1.12-6.08c-3.62,4.43-8.54,6.64-14.78,6.64-5.61,0-10.16-1.75-13.66-5.24-3.49-3.49-5.24-9.1-5.24-16.84v-26.38h10.1v25.35c0,4.68.94,8.23,2.81,10.66,1.87,2.43,4.64,3.65,8.32,3.65,3.87,0,6.89-1.42,9.07-4.26,2.18-2.84,3.27-6.72,3.27-11.65v-23.76h10.1Z"/>
        <path class="cls-1" d="M297.76,30.73h13.94l20.95,51.54,20.58-51.54h13.66v65.48h-10.38v-48.17l-19.64,48.17h-9.07l-19.64-48.17v48.17h-10.38V30.73Z"/>
        <path class="cls-1" d="M385.99,93.73c-3.71-2.03-6.58-4.89-8.61-8.61-2.03-3.71-3.04-8-3.04-12.86s1.01-9.06,3.04-12.77c2.03-3.71,4.89-6.59,8.61-8.65,3.71-2.06,7.97-3.09,12.77-3.09s9.06,1.03,12.77,3.09c3.71,2.06,6.58,4.94,8.61,8.65,2.03,3.71,3.04,7.97,3.04,12.77s-1.01,9.15-3.04,12.86c-2.03,3.71-4.9,6.58-8.61,8.61-3.71,2.03-7.97,3.04-12.77,3.04s-9.06-1.01-12.77-3.04ZM409,83.72c2.59-2.96,3.88-6.78,3.88-11.46s-1.3-8.5-3.88-11.46c-2.59-2.96-6-4.44-10.24-4.44s-7.64,1.48-10.2,4.44c-2.56,2.96-3.84,6.78-3.84,11.46s1.28,8.5,3.84,11.46c2.56,2.96,5.95,4.44,10.2,4.44s7.65-1.48,10.24-4.44Z"/>
        <path class="cls-1" d="M468.46,52.99c3.59,3.49,5.38,9.11,5.38,16.84v26.38h-10.2v-25.82c0-4.55-.97-8.01-2.9-10.38-1.93-2.37-4.77-3.55-8.51-3.55-3.99,0-7.12,1.39-9.4,4.16-2.28,2.78-3.41,6.59-3.41,11.46v24.13h-10.1v-47.89h8.79l1.12,6.27c3.62-4.55,8.73-6.83,15.34-6.83,5.67,0,10.3,1.75,13.89,5.24Z"/>
        <path class="cls-1" d="M482.42,59.4c1.96-3.71,4.71-6.58,8.23-8.61,3.52-2.03,7.56-3.04,12.11-3.04s8.68.94,12.21,2.81c3.52,1.87,6.3,4.52,8.32,7.95,2.03,3.43,3.07,7.45,3.13,12.07,0,1.25-.09,2.53-.28,3.84h-36.11v.56c.25,4.18,1.56,7.48,3.93,9.91,2.37,2.43,5.52,3.65,9.45,3.65,3.12,0,5.74-.73,7.86-2.2,2.12-1.46,3.52-3.54,4.21-6.22h10.1c-.87,4.86-3.23,8.86-7.06,11.97-3.83,3.12-8.62,4.68-14.36,4.68-4.99,0-9.34-1.01-13.05-3.04-3.71-2.03-6.58-4.88-8.61-8.56-2.03-3.68-3.04-7.95-3.04-12.81s.98-9.24,2.95-12.96ZM516.14,67.02c-.44-3.49-1.82-6.22-4.16-8.18-2.34-1.96-5.29-2.95-8.84-2.95-3.31,0-6.16,1.01-8.56,3.04-2.4,2.03-3.79,4.72-4.16,8.09h25.72Z"/>
        <path class="cls-1" d="M536.36,48.32l13.38,36.95,13-36.95h10.76l-21.7,55.37c-1.12,2.87-2.15,5.07-3.09,6.59-.94,1.53-2.09,2.68-3.46,3.46-1.37.78-3.21,1.17-5.52,1.17h-10.85v-8.89h7.11c1.93,0,3.27-.3,4.02-.89.75-.59,1.53-1.92,2.34-3.98l1.96-4.58-18.71-48.27h10.76Z"/>
      </g>
    </g>
  </g>
</svg>